<?xml version="1.0" encoding="UTF-8"?>
<svg xmlns="http://www.w3.org/2000/svg" xmlns:xlink="http://www.w3.org/1999/xlink" width="113.587mm" height="105.923mm" viewBox="174.381195 -272.311646 113.586823 105.923279">
    <path transform="matrix(1.104761,0,0,-1.104761,88.04184,-112.255051)" style="stroke:#000000;stroke-width:0.05mm;fill:none" d="M105.5,143.106613C97.322197,140.720184,87.37513,135.502151,85.474724,132.601761C84.506676,131.124344,84.149544,129.252335,84.539406,127.699028C85.25119,124.863029,83.882141,121.791229,80.317825,118.226921C76.548347,114.457436,77.61013,112.643532,84.198746,111.596916C88.96006,110.840569,90.318642,110.97876,92.560081,112.447411C94.922638,113.995422,95.173164,114.672295,94.697128,118.221405C94.23922,121.635361,94.545105,122.600685,96.72496,124.620911C99.950783,127.610497,102.062012,127.627342,104.825684,124.685547C107.902016,121.41095,107.555603,117.213409,103.592545,109.743134C100.16481,103.281929,99.685844,101.382912,99.889313,95.06041C99.978928,92.275505,100.969093,90.72522,105.091431,86.915504C110.922562,81.526581,110.998718,82.219421,103.364182,71.202087C97.838287,63.227718,97.795761,62,103.045456,62C106.007294,62,107.748383,62.657475,109.545456,64.454544C110.895454,65.804543,112,67.407875,112,68.017494C112,70.770622,117.427429,79.821274,119.984055,81.331505C121.537544,82.249176,123.076653,83,123.404289,83C124.791901,83,123.778191,79.509613,120.5,73C116.145309,64.35273,115.984283,61.994343,119.75,62.015312C121.262497,62.023735,122.996834,62.361237,123.60408,62.765312C124.211327,63.169392,127.734238,69.466606,131.43277,76.759132C138.507675,90.708946,141.095047,93.661659,148.253464,95.954926C152.783676,97.406227,157.654663,96.513786,159.008316,93.984459C162.317032,87.802055,158.05011,81.904976,147.183029,77.641426C135.453049,73.03933,129.074387,65.701691,129.021957,56.75C128.991562,51.559143,131.735153,49,137.330521,49C141.833786,49,146.261169,50.920002,155.911713,57.058006C163.137314,61.653683,169.854462,61.873856,175.333725,57.694618C177.356644,56.151661,179.459122,55.165718,180.00589,55.503635C181.356522,56.338371,181.265381,64.323448,179.870285,67.385361C179.248932,68.749062,177.488083,70.383614,175.957291,71.017693C173.637512,71.978577,172.387466,71.822639,168.450912,70.081306C165.853195,68.93222,161.579361,66.448555,158.953506,64.562065C149.187912,57.546188,141.278473,55.121521,138.199997,58.200001C134.742126,61.657867,139.395264,67.675011,149.38591,72.664948C163.035431,79.482346,166.572922,83.685654,165.762161,92.123444C165.149979,98.494583,161.25209,103.674477,156.382553,104.588013C149.575958,105.864937,142.34729,104.371376,134.506409,100.068054C119.66658,91.923485,115.086319,95.01561,114.637039,113.481819C114.406021,122.976799,114.112694,124.367935,111.149704,130.020493C107.381905,137.208374,107.657822,137.956909,115.055725,140.617157C125.757828,144.465576,117.51535,146.6129,105.5,143.106613z"/>
    <path transform="matrix(1.104761,0,0,-1.104761,88.04184,-112.255051)" style="stroke:#000000;stroke-width:0.05mm;fill:none" d="M157.5,142.097198C145.19368,138.300613,136.677063,133.772293,130.811707,127.906944C124.931496,122.026733,121.976807,115.835808,121.255821,107.88459C120.624672,100.924202,122.173584,99.563286,126.897896,102.927299C129.177841,104.550766,130.127823,106.298729,130.991669,110.4599C133.083557,120.536453,140.473373,126.866608,152.791885,129.134094C155.931351,129.711975,159.137253,130.705704,159.916122,131.342392C162.577637,133.518051,169,142.177032,169,143.589798C169,145.470062,168.02095,145.342987,157.5,142.097198z"/>
    <path transform="matrix(1.104761,0,0,-1.104761,88.04184,-112.255051)" style="stroke:#000000;stroke-width:0.05mm;fill:none" d="M149.5,122.064934C143.324051,120.561401,137,115.862663,137,112.777496C137,111.652763,145.796936,111.820953,147.976364,112.98735C149.95874,114.048286,154,120.006332,154,121.868034C154,123.113716,153.837296,123.120842,149.5,122.064934z"/>
    <path transform="matrix(1.104761,0,0,-1.104761,88.04184,-112.255051)" style="stroke:#000000;stroke-width:0.05mm;fill:none" d="M93.626465,79.596352C88.408096,73.48819,82,64.285477,82,62.899509C82,61.560143,90.253624,61.873264,92.076828,63.281803C95.379738,65.833504,102.092072,78.415161,101.791901,81.491814C101.329018,86.236076,98.796776,85.648262,93.626465,79.596352z"/>
</svg>
